<svg width="56" height="57" viewBox="0 0 56 57" fill="none" xmlns="http://www.w3.org/2000/svg">
<circle cx="28" cy="28.5312" r="28" fill="#393C54"/>
<path fill-rule="evenodd" clip-rule="evenodd" d="M26.0331 14.5128C24.4353 12.2078 22.3978 11.901 20.7993 12.5613C16.7011 14.3238 13.3882 17.54 11.5244 21.5525C11.5095 21.5855 11.4971 21.613 11.4863 21.637L11.4784 21.6546L11.4774 21.6568C11.4366 21.7475 11.4182 21.7886 11.3559 21.9151C10.9853 22.6697 11.043 23.7178 11.5373 23.4663C11.9492 23.1728 13.8851 22.2086 15.8621 21.7055C18.3335 21.0767 20.6812 22.2086 21.299 23.9692C21.9169 25.7299 21.7109 27.3648 20.6812 28.6223C19.702 29.8183 16.6297 30.8653 14.206 31.6913L14.2057 31.6914C13.7388 31.8505 13.2957 32.0015 12.8965 32.1437C10.9195 32.8479 10.949 34.7941 11.1962 35.8002L11.2342 35.8961C13.9473 42.4162 20.4215 47.0096 27.9814 47.0269C27.9876 47.0269 27.9938 47.0269 28 47.0268C28.0062 47.0269 28.0125 47.0269 28.0187 47.0269C35.5786 47.0096 42.0528 42.4162 44.7658 35.8961L44.8039 35.8002C45.051 34.7941 45.0806 32.8479 43.1036 32.1437C42.7044 32.0015 42.2613 31.8505 41.7944 31.6914L41.7941 31.6913C39.3703 30.8653 36.2981 29.8183 35.3189 28.6223C34.2891 27.3648 34.0832 25.7299 34.7011 23.9692C35.3189 22.2086 37.6666 21.0767 40.1379 21.7055C42.115 22.2086 44.0509 23.1728 44.4628 23.4663C44.957 23.7178 45.0148 22.6697 44.6441 21.9151C44.5819 21.7886 44.5634 21.7475 44.5227 21.6568L44.5217 21.6546L44.5137 21.637C44.503 21.613 44.4906 21.5855 44.4757 21.5525C42.6119 17.54 39.299 14.3238 35.2008 12.5613C33.6023 11.901 31.5648 12.2078 29.967 14.5128C29.4537 15.2533 28.7456 15.5366 28 15.54C27.2545 15.5366 26.5464 15.2533 26.0331 14.5128ZM28 27.4238C28.0063 27.4239 28.0125 27.4241 28.0187 27.4242V27.4235C28.0858 27.4223 28.1531 27.4218 28.2208 27.4218C31.3937 27.4213 33.9656 28.6847 33.9654 30.2437C33.9652 31.6464 31.8824 32.8105 29.1534 33.03C29.6509 34.7056 33.4319 33.2952 33.7981 33.0664C34.1811 32.8271 34.8993 32.5878 35.2344 33.2097C35.5023 33.7072 34.9629 34.2144 34.6597 34.4059C32.3764 36.0032 29.4632 36.3477 28.2674 36.321C28.1912 36.3228 28.1081 36.3229 28.0187 36.3214V36.3207C28.0124 36.3208 28.0062 36.3209 28 36.3211C27.9938 36.3209 27.9876 36.3208 27.9814 36.3207V36.3214C27.8919 36.3229 27.8089 36.3228 27.7327 36.321C26.5369 36.3477 23.6237 36.0032 21.3404 34.4059C21.0371 34.2144 20.4977 33.7072 20.7657 33.2097C21.1008 32.5878 21.819 32.8271 22.202 33.0664C22.5682 33.2952 26.3492 34.7056 26.8467 33.03C24.1177 32.8105 22.0348 31.6464 22.0347 30.2437C22.0345 28.6847 24.6064 27.4213 27.7793 27.4218C27.8469 27.4218 27.9143 27.4223 27.9814 27.4235V27.4242C27.9876 27.4241 27.9938 27.4239 28 27.4238ZM17.2313 28.0738C18.4054 28.0738 19.3572 27.0497 19.3572 25.7864C19.3572 24.523 18.4054 23.4989 17.2313 23.4989C16.0572 23.4989 15.1055 24.523 15.1055 25.7864C15.1055 27.0497 16.0572 28.0738 17.2313 28.0738ZM38.7687 28.0738C37.5947 28.0738 36.6429 27.0497 36.6429 25.7864C36.6429 24.523 37.5947 23.4989 38.7687 23.4989C39.9429 23.4989 40.8946 24.523 40.8946 25.7864C40.8946 27.0497 39.9429 28.0738 38.7687 28.0738Z" fill="#FFFFFF"/>
</svg>